<?xml version="1.0"?><svg version="1.2" baseProfile="tiny-ps" viewBox="0 0 300 300" xmlns="http://www.w3.org/2000/svg" xmlns:xlink="http://www.w3.org/1999/xlink"><title>inovuslabs.org</title><g><g fill="#feffff" transform="matrix(.1 0 0 -.1 0 300)"><path d="m938 2418-558-321V820l38-24c20-13 272-160 559-325l522-301 553 320 553 319v1294l-550 318c-302 175-552 318-555 319-3 0-256-145-562-322z"/></g><g fill="#cce4ed" transform="matrix(.1 0 0 -.1 0 300)"><path d="m938 2418-558-321V820l38-24c20-13 272-160 559-325l522-301 553 320 553 319v1294l-550 318c-302 175-552 318-555 319-3 0-256-145-562-322zm584-120 3-83 138-3 137-3v-58l-22-3-23-3-3-153-3-153 156-287 155-287v-60l-18-34-19-34-34-19-34-18h-435V930h-29l-3 63-3 62-25 3c-28 4-50 19-50 35v10l18-16 19-17h43v100h-50l-21-32-21-33 7 25c4 14 11 29 15 34l8 8-19 58-20 57 51 103 50 103v77h-22l5 20 5 20h-18v-45l-9 14-9 14-17-27-17-26-27 1-26 2 22 4 22 4 32 36 31 36-17 9-16 10-27-6c-15-3-21-3-13 1l13 5-13 10-14 9 33-4 32-4v8c0 4-15 10-32 14-18 4-41 9-50 11l-18 5v-10c0-5 8-12 18-14l17-5-17-1-17-1-73 108-74 107-48 9-47 8-34-18-34-18-25 12-25 11-7 26-6 25 16 25 16 25 18-1h17l-22-9-22-9-7-26-6-26 17-19 18-20h19c10 0 27 9 37 19l19 19 57-13c31-8 58-15 60-17 1-2 30-45 64-96 35-52 65-91 68-89 2 3-26 50-62 106l-67 100-17 4-16 5 17 1 17 1 76-110 77-110h50l-13 18-13 17 25-23 26-23 17 7 17 7-5 22c-3 13-8 31-12 42l-5 18 14-25 15-24 7 47 7 48-7 7-8 7-4-11c-2-6-11-20-19-30l-15-19 16 32c8 18 20 44 25 58l10 25h-9c-5 0-19-25-31-56l-23-55 12-38c16-54 14-57-14-31l-25 23 1 16v16l9-22c14-35 21-27 15 15l-6 37 35 73 36 74v177l-30 16-30 16v33l16-22c8-12 22-22 30-22h14v100h-14c-8 0-22-10-30-22-9-12-16-18-16-13 0 16 13 31 38 44l22 12v119h29l3-82zm-274-242c-7-8-15-12-17-11-5 6 10 25 20 25h10l-13-14zm63-3 14-18-17 14c-10 7-18 15-18 17 0 8 8 3 21-13zm-57-65 11-8h-12c-7 0-17 9-23 19-14 27-12 41 2 16 6-11 16-23 22-27zm136-45c0-3-15 6-34 21-42 32-56 34-30 4l19-22-27 20-26 19 10 12 10 13 39-31c22-17 39-33 39-36zm-310 22c19-23 8-26-19-4l-23 19h15c8 0 20-7 27-15zm89-51c9-8-45-2-64 6l-20 10 40-7c22-3 42-7 44-9zm208-41-5-18v70l5-17c2-10 2-26 0-35zm20-20-5-18v70l5-17c2-10 2-26 0-35zm-10-110-5-18v60l5-12c2-7 2-21 0-30zm-107-63 75-39-15-1-15-1 28-15c49-27 28-24-28 3l-55 27 13 8c6 4 9 8 5 8-3 0-14 3-24 7l-17 6 7-11 7-12-17 7-18 7 14 4 13 5-34 18c-19 10-29 18-24 18 6 0 44-18 85-39zm-240 26c0-2-8-10-17-17l-18-14 14 18c13 16 21 21 21 13zm45-6 6-9 17 5 17 6-14-10-14-10 19-4 19-4-15-5-15-5-22 23c-12 13-18 23-13 23s11-4 15-10zm112-6c-3-3-12-4-19-1l-13 5 19 1c11 1 17-2 13-5zm-173-60 6-15-10 6c-6 3-10 10-10 16 0 14 7 11 14-7zm67-7-12-12 7 18c3 10 9 15 12 12s0-11-7-18zm340-15c-5-9-18-25-29-35l-20-18-39 4-38 4 42 1 42 2 11 20 11 20-13 1h-13l20 9c11 5 24 9 28 9l8 1-10-18zm-364 2c-3-3-12-4-19-1l-13 5 19 1c11 1 17-2 13-5zm206-61c-18-2-48-2-65 0l-33 4h130l-32-4zm167-8-12-15h9c5 0 14 5 21 12s12 9 12 6c0-4-15-17-32-29l-33-23 14 17c7 9 10 17 6 17s-2 7 5 15 15 15 17 15c3 0 0-7-7-15zm-296-5c-24-9-74-66-74-83v-12l36 43 36 42 36-2 37-1-33-4-33-4-34-37-33-37 5-28 6-28-18-19c-10-11-23-20-29-20s0 7 12 16l22 15v21c0 12-7 29-16 39l-16 18 38 45 39 45h40l-21-9zm169-7c-18-2-48-2-65 0l-33 4h130l-32-4zm30-55c-4-7-8-16-8-20 0-3-4-10-9-15l-9-8 8 14 8 14-13-5c-7-2-14-12-16-22-1-10-6-21-10-24l-7-7 6 18 6 17h-8c-5 0-12-6-14-12l-5-13-1 11c-1 6 16 23 37 37 43 30 46 31 35 15zm-323-19c-29-12-40-26-40-56v-22l22-15 22-16h-33l-11 19c-5 11-10 31-10 45v25l22 15c12 9 29 16 38 15h15l-25-10zm247-81-5-13-1 19c-1 11 2 17 5 13 3-3 4-12 1-19zm20-10-5-13-1 19c-1 11 2 17 5 13 3-3 4-12 1-19zm-32-38-30-5v-58l18-11 17-11 17 11c10 6 21 22 24 35l7 24 1-19 1-19-17-19c-20-22-41-23-65-1l-18 16v46l21 15 21 14 17-6 16-6-30-6zm184-511 31-11 10-18c6-10 10-33 10-51v-33l-22-23-21-23h-77l-20 20c-11 11-22 30-26 44l-6 24 17 31 16 32 22 9c29 12 29 12 66-1zm567-3 19-14-7-8-8-7-14 12-15 13-11-7c-18-11-11-31 20-53l30-23v-22c0-29-18-47-46-47h-22l-12 15-13 15 7 7 6 7 12-12c7-7 20-12 30-12h18v37l-30 26-30 27v39l18 10c23 14 25 13 48-3zm-959-118-4-43v170l4-42c2-24 2-62 0-85zm183 22h9l4 53 3 52 2-80 1-80-49 54-50 55V660h-20v165l46-53c25-28 49-52 54-52zm367 43 26-58 23 50c13 28 25 55 27 60l4 10 7-6 7-7-32-76c-18-42-34-74-37-71s-20 39-38 80l-33 75h10c6 0 22-26 36-57zm183-8v-64l17-10 17-9 18 9 18 10v129h22l-4-71-4-70-14-9c-21-14-64-12-78 2l-12 12v136h20v-65zm-99-192 14-18-17 14c-10 7-18 15-18 17 0 8 8 3 21-13zm-81 1218c-5-11-10-27-10-35v-16l25-16 25-16 25 16 25 16v16c0 8-5 24-10 35l-11 19h-58l-11-19zm1-154-24-12-10-28-9-28 12-29 12-28 30-13 31-13 26 15c14 8 32 26 40 40l15 26-13 30-12 30-25 12c-31 14-43 14-73-2zm-81-157v-40h10c5 0 14 9 20 20l11 20-11 20c-6 11-15 20-20 20h-10v-40zm113-53-113-42v-155l187 2 187 3 15 26 15 26-50 89-49 89-40 2-40 2-112-42zm-196-53-38-75 18-55c9-30 21-54 26-54h9l-7 18c-3 9-11 35-17 57l-11 40 37 73c20 39 33 72 28 72-4 0-24-34-45-76zm13-29-22-54 17-51 17-51 11 4 12 4 3 101 3 102h-9c-6 0-20-25-32-55zm-150 315c8-5 20-10 25-10h10l-15 10c-8 5-19 10-25 10h-10l15-10zm65-865-25-24v-19c0-55 76-85 114-46l16 15v68l-22 15c-12 9-31 16-41 16h-18l-24-25z"/></g><g fill="#8ec4d8" transform="matrix(.1 0 0 -.1 0 300)"><path d="m938 2418-558-321V820l38-24c20-13 272-160 559-325l522-301 553 320 553 319v1294l-550 318c-302 175-552 318-555 319-3 0-256-145-562-322zm590-120 3-77 137-3 137-3 3-32 3-32-25-7-26-6v-311l150-278 150-278v-76l-13-25c-7-13-28-35-46-47l-34-23h-437V930h-50v115l-32 15c-17 8-36 23-42 32l-10 17 12 35 13 36-17 55-18 56 47 95 47 94v75l-8-11c-8-12-98-74-107-74-3 0-3 5 1 12l7 11-12-7c-6-4-9-11-6-16l5-8-30-22-29-21-7-36-7-36 12-18c14-24 14-62-1-77-7-7-24-12-38-12s-31 5-38 12l-12 12v55l20 14 20 14 6 34c11 54 18 63 103 118l79 52 7 17 6 17-25-24-26-24-122-9-123-9-32-36-33-36v-67l-20-20-20-20h-41l-24 25c-30 29-31 45-4 79l20 26h55l36 44 37 43 123 7 123 7 20 21 20 21-18-6-18-7-96 45-96 45-36-11-37-11-16-29-17-29h-51l-16 25-16 24 7 21c3 11 15 24 25 30l18 10 29-10 29-10 39 13 39 14 71-33c38-18 72-31 74-29 4 5-129 197-142 206-5 4-27 10-49 13l-39 6-22-15c-12-8-32-15-46-15h-24l-19 17-18 16v57l20 20 20 20h42l27-29 27-29 54-11 55-12 65-96c75-110 86-123 107-123h15l-10 13-10 12-7 100-7 100-31 32-30 33-24-6-24-6-19 17-20 18v47l25 16 26 17 25-11 24-12 6-29 6-29 34-33 34-33v-60c0-34 4-67 8-73l8-13 32 65 32 65v192l-30 28-30 28v44l30 28 30 28v113l23-3 22-3 3-77zM1060 739v-79h-30v78c0 78 5 96 21 86l9-5v-80zm200 0v-79h-7c-5 0-29 24-55 52l-47 53-1-52v-53h-30v160h9c5 0 30-24 55-52l46-53v51c0 52 6 68 21 58l9-5v-80zm203 71 25-20 7-29 6-30-15-29-15-29-29-12-29-12-27 7-26 6-20 25-20 26v59l29 29 29 29h59l26-20zm133-37 26-58 22 45c12 25 25 51 29 58l8 12 9-5 8-5-32-75c-18-41-36-78-39-82l-7-6-35 77-35 78 5 9c10 16 15 11 41-48zm186-23 3-65 18-3 18-4 14 12 15 12v129l10-6 10-6V690l-20-20c-24-24-38-25-68-4l-22 15v153l9-9 10-10 3-65zm226 68c7-7 12-15 12-20v-7l-30 6-30 6v-8c0-4 16-25 35-46 19-22 35-44 35-49 0-15-38-50-54-50s-46 26-46 41c0 12 14 11 27-2l12-12 15 6c25 10 19 31-14 55l-30 23v57l13 5c22 9 43 7 55-5zm-313-218 6-10-15 6-16 6v-13c0-7 10-23 22-36l22-23-17-17-17-17-17 19-18 19 18-14 18-13 11 11 12 12-23 24-24 25 6 15c7 18 23 21 32 6zm-307-83 17-5-22-1-23-1 2 48 1 47 4-42 4-42 17-4zm112 43c20-40 28-69 9-37l-10 17h-38l-11-17-12-18 7 20c18 52 27 75 31 75 2 0 13-18 24-40zm73 19-6-22 14 5 14 5-1 17c-3 32 14 15 19-21 8-44 3-53-29-53h-24v90h18l-5-21zm-115 1650-18-10v-57l15-12c22-18 27-9 23 43l-3 46-17-10zm-219-190-12-23 23-18 22-18 20 11 19 10-3 27-3 27-27 3-27 3-12-22zm108-79 32-35 4-50 3-50 2 51 2 50-37 35-38 34 32-35zm-352-14-15-23 6-17c3-9 15-21 26-27l19-10 25 16 24 15v23c0 29-18 47-47 47h-23l-15-24zm110-36c2-4 24-10 47-14s49-12 58-18l15-12-15 16-15 16-47 10-48 9 5-7zm352-65c-24-50-20-58 4-12 11 22 19 41 17 43-3 2-12-12-21-31zm-187-60c28-41 53-75 56-75 2 0-18 34-46 75s-53 75-56 75c-2 0 18-34 46-75zm194 11-6-25 11-18 10-18 1 43c0 47-6 55-16 18zm-72-32-2-41 18-16c10-10 23-17 28-17 4 0-1 7-13 15l-22 15-4 43-4 42-1-41zm213 12-16-25 11-20 11-21h48l15 16c20 19 20 24 0 52l-15 22h-39l-15-24zm-170-8c8-40 25-82 31-76 2 3-5 27-16 54l-21 49 6-27zm-24-15c-1-12 4-25 9-28l10-6-1 8c0 4-4 17-9 28l-9 20v-22zm-276-58c-39-17-21-18 25 0l35 13-15 1c-8 0-28-6-45-14zm-115-16-12-21 18-19c22-25 39-24 58 3l15 21-10 19-10 18h-48l-11-21zm320 8 15-16 45-5 45-6-45 11c-25 6-52 16-60 22l-15 11 15-17zm10-37c8-5 24-10 34-10 26 0 18 6-19 14l-30 7 15-11zm45-20-20-9h15c8 0 22 4 30 9l15 10-10-1c-5 0-19-4-30-9zm220 0c-12-4-27-15-35-24l-13-17v-59l18-20 18-20h63l22 16 22 15v76l-17 15c-10 9-27 18-38 21l-20 6-20-9zm-198-39-24-29-29-5-29-4 31-2 32-1 26 35c33 42 28 47-7 6zm45-6v-30l5 18c2 9 2 23 0 30l-5 12v-30zm-229-42c15-2 39-2 55 0l27 4h-110l28-4zm-132-45-33-43 35 37 36 36 23 5 23 4-26 2-26 1-32-42zm429-30v-43l10 15c13 20 13 57 0 65l-10 6v-43zm165-34c-38-14-91-33-117-42l-48-16v-156h346l18 13 19 14-1 24v24l-37 65c-21 36-45 73-53 83l-15 17h-21c-12 0-52-12-91-26zm-705 2-12-15 4-22c2-12 10-26 19-32l16-10 26 7 26 6 6 20 6 19-11 21-11 20h-57l-12-14zm300-1c-7-9-11-17-9-20 3-2 10 5 17 15 14 24 10 26-8 5zm-18-55v-25l5 13c2 6 2 18 0 25l-5 12v-25zm179-48-22-48 17-44c9-25 21-49 26-54l8-10v102c0 56-1 102-3 102s-14-22-26-48zm-33-15-15-32 14-40c22-65 23-68 29-63 2 3-4 27-15 54l-19 49 15 29c8 15 13 30 11 32-3 2-11-11-20-29zm-188-2-12-14 4-17c2-9 11-22 21-28l17-11 18 11c9 6 18 19 20 28l4 17-12 14c-7 8-20 15-30 15s-23-7-30-15zm208-156-18-10v-55l12-12c7-7 20-12 30-12h18v100h-12c-7 0-21-5-30-11zm-54-362c-26-14-34-27-34-58v-26l18-16 19-17h50l16 18 17 19v50l-17 15c-10 8-25 17-34 20l-15 6-20-11zm86-231c0-9 5-16 10-16 6 0 10 4 10 9 0 6-4 13-10 16l-10 6v-15zm100-31v-15h40v30h-40v-15z"/></g><g fill="#4aa0c0" transform="matrix(.1 0 0 -.1 0 300)"><path d="m938 2418-558-321V820l38-24c20-13 272-160 559-325l522-301 553 320 553 319v1294l-550 318c-302 175-552 318-555 319-3 0-256-145-562-322zm592-118v-79l138-3 137-3v-70l-22-3-23-3v-305l150-277c82-152 152-288 156-302l6-26-16-44-17-44-33-21-33-20h-443V920h-50v126l-32 9-33 10-9 28-10 28 11 30 12 30-18 53-19 52 49 104 49 103v48l-89-62-89-61-5-36-6-35 15-29 15-30-16-24-15-24h-59l-15 22c-22 31-20 45 10 73l26 24 5 40 5 39 64 43c35 24 62 45 60 46-2 2-54 0-115-3l-113-7-34-36-35-36 5-27 5-26-20-26-20-26h-55l-22 20-22 21v49l20 20 20 20h48l39 44 38 43 128 11 129 10 11 11 11 11h-16c-8 0-57 20-108 44l-93 43-34-10-34-11-15-28-15-28h-68l-11 19c-14 28-12 52 7 73l16 18h22c11 0 26-5 31-10l10-10 46 16 46 15 72-36 72-36-8 13c-4 7-36 54-70 105l-64 91-47 10-48 11-15-14c-19-16-48-21-76-12l-21 7-11 25-12 25 10 24c10 28 38 46 70 46h21l25-27 26-28 51-10 52-10 71-104 70-104 24-9 23-8-12 13-11 14-9 103-8 104-29 23-29 23h-54l-15 16-16 15v48l16 15 15 16h21c12 0 30-7 40-17l18-16v-45l35-26 35-27v-28c0-16 3-50 7-76l6-48 33 64 33 64 1 98v97h-10c-5 0-19 9-30 20l-20 20v58l30 25 30 26v111h50v-80zM1058 745l-3-85h-20l-3 85-3 85h32l-3-85zm123 33 48-53 1 53v52h30V660h-9c-6 0-29 23-53 50l-43 50-5-52-5-53-10 2-10 3-3 85-3 85h7c4 0 29-24 55-52zm280 39c23-17 39-52 39-82v-27l-29-29-29-29h-60l-31 26-31 26v79l25 24 24 25h38l38-1 16-12zm138-43 23-55 26 55 25 56h13c20 0 18-9-25-101l-39-84-31 69c-17 37-34 79-37 92l-6 24h28l23-56zm181-2v-58l14-19 13-18 16 6 16 6 3 67 3 67 13 5 12 4V687l-17-19-16-18h-47l-20 20-20 20v63c0 62 4 77 22 77h8v-58zm238 46 12-12-12-13-11-13-13 11-13 11-11-7-12-7 36-33 36-33v-18c0-23-29-54-50-54-10 0-28 9-41 19l-24 20 12 12 13 13 20-19 20-19 12 12 12 12-37 38c-39 40-45 60-25 80 15 15 60 16 76 0zm-625-301 22-3-17-8-18-8-15 6-15 5v44c0 24 3 47 8 51l7 8 3-45 3-46 22-4zm213 82c4-7 8-28 10-48l3-35-12-8c-7-4-20-8-29-8h-18v110h19c11 0 23-5 27-11zm99 1 6-10h-20c-27 0-27-12 0-28l20-13-3-22-3-22h-48l-5 14-4 13 21-7 21-6v10c0 6-9 20-21 32l-20 20 12 15c13 16 35 18 44 4zm-197-45c25-51 26-55 13-55-5 0-13 9-16 20l-6 20h-34l-13-21c-7-12-16-19-18-16-6 6 37 97 46 97 3 0 16-20 28-45zm-56 1663c-18-18-15-43 8-63l20-18v93h-8c-4 0-13-5-20-12zm-208-172c-3-8-4-23-2-33l3-18h48l10 17 11 16-13 16-13 16h-39l-5-14zm-242-88c-15-15-15-51 0-66 27-27 78-7 78 29 0 39-52 63-78 37zm462-162-6-15 11-18 10-18 1 33c0 34-7 42-16 18zm152-9-18-13 4-24 3-23 18-11 17-11 18 11 17 11 3 23 4 24-18 13c-10 7-21 13-24 13s-14-6-24-13zm-586-102-12-14 4-18 3-18h60l3 18 4 18-12 14c-7 8-18 15-25 15s-18-7-25-15zm560-75-20-20v-60l20-20 20-20h57l21 23 22 23v54l-20 20-20 20h-60l-20-20zm-60-140v-31l10 6c6 3 10 15 10 25s-4 22-10 25l-10 6v-31zm210-24c-25-8-81-27-125-44l-80-30-3-76-3-76h337l22 16 22 15v41l-41 71c-38 66-64 98-78 96-3 0-26-6-51-13zm-752-21-11-25 18-20c31-34 75-20 75 25 0 28-18 45-47 45h-23l-12-25zm466-97-20-43 15-42c9-23 20-45 24-49l7-7v91c0 51-1 92-3 92s-12-19-23-42zm-218-14c-18-18-19-24-7-42l8-14 24 4 24 3 3 24 4 24-14 8c-18 12-24 11-42-7zm206-160-22-15v-19c0-22 26-50 46-50h14v100h-8c-4 0-18-7-30-16zm-75-372-17-19v-53l26-16 26-17 26 9 27 9 9 27 9 26-17 26-16 26h-57l-16-18zm203-202c0-5 7-10 15-10s15 5 15 10c0 6-7 10-15 10s-15-4-15-10zm0-45v-16l18 3c21 4 19 22-2 26l-16 3v-16zm-100 25c0-5 5-10 10-10 6 0 10 5 10 10 0 6-4 10-10 10-5 0-10-4-10-10z"/></g></g></svg>